<svg xmlns="http://www.w3.org/2000/svg" version="1.1" xmlns:xlink="http://www.w3.org/1999/xlink" viewBox="0 0 200 200"><rect width="200" height="200" fill="url('#gradient')"></rect><defs><linearGradient id="gradient" gradientTransform="rotate(45 0.5 0.5)"><stop offset="0%" stop-color="#445725"></stop><stop offset="100%" stop-color="#597f2b"></stop></linearGradient></defs><g><g fill="#323029" transform="matrix(4.626281272771435,0,0,4.626281272771435,2.128794944914688,132.8741017830612)" stroke="#e1cf65" stroke-width="0.5"><path d="M13.02-14.22L13.02 0L9.59 0L9.59-11.57L4.48-11.57L4.48 0L1.05 0L1.05-14.22L13.02-14.22ZM27.09-14.22L27.09 0L23.66 0L23.66-11.57L18.55-11.57L18.55 0L15.13 0L15.13-14.22L27.09-14.22ZM41.26-7.47L41.26-6.82Q41.26-4.74 40.49-3.13Q39.72-1.53 38.30-0.67Q36.88 0.20 35.06 0.20Q33.24 0.20 31.84-0.64Q30.43-1.47 29.64-3.03Q28.86-4.58 28.82-6.59L28.82-6.59L28.82-7.39Q28.82-9.48 29.58-11.08Q30.35-12.68 31.78-13.54Q33.21-14.41 35.04-14.41L35.04-14.41Q36.85-14.41 38.26-13.55Q39.68-12.70 40.46-11.11Q41.25-9.52 41.26-7.47L41.26-7.47ZM37.77-6.76L37.77-7.41Q37.77-9.53 37.07-10.63Q36.36-11.73 35.04-11.73L35.04-11.73Q32.46-11.73 32.31-7.86L32.31-7.86L32.30-6.82Q32.30-4.73 33.00-3.60Q33.69-2.48 35.06-2.48L35.06-2.48Q36.36-2.48 37.06-3.58Q37.76-4.69 37.77-6.76L37.77-6.76Z"></path></g></g></svg>